<svg xmlns="http://www.w3.org/2000/svg" xmlns:xlink="http://www.w3.org/1999/xlink" width="202" height="66" viewBox="0 0 202 66">
  <defs>
    <linearGradient id="linear-gradient" x1="-0.49" y1="4.231" x2="-0.49" y2="6.672" gradientUnits="objectBoundingBox">
      <stop offset="0" stop-color="#fff"/>
      <stop offset="0.997" stop-color="#fff" stop-opacity="0"/>
    </linearGradient>
    <linearGradient id="linear-gradient-2" x1="-0.835" y1="6.174" x2="-0.835" y2="8.614" xlink:href="#linear-gradient"/>
    <linearGradient id="linear-gradient-3" x1="1.75" y1="-22.864" x2="1.75" y2="-20.423" xlink:href="#linear-gradient"/>
  </defs>
  <g id="Objeto_inteligente_vectorial" data-name="Objeto inteligente vectorial" transform="translate(-43.319 -273.538)">
    <path id="Trazado_3687" data-name="Trazado 3687" d="M142.492,333.053l-.319,1.028h-97.3l.311-1.028" fill="#aa0012" fill-rule="evenodd"/>
    <g id="Grupo_18" data-name="Grupo 18">
      <g id="Grupo_17" data-name="Grupo 17">
        <path id="Trazado_3688" data-name="Trazado 3688" d="M48.843,321.887l-2.468,8.251-.9,0,2.468-8.252Z" fill="#373737"/>
        <path id="Trazado_3689" data-name="Trazado 3689" d="M48.534,330.145,51,321.894l.867,0,.4,4.461c.077.833.147,1.606.167,2.365h.026c.219-.893.42-1.86.709-2.828l1.208-3.991.791,0-2.455,8.251-.817,0-.443-4.3a25.38,25.38,0,0,1-.148-2.562h-.025c-.189.845-.475,1.9-.764,2.877l-1.182,3.98Z" fill="#373737"/>
        <path id="Trazado_3690" data-name="Trazado 3690" d="M58,322.735l-1.532,0,.249-.821,3.956.012-.249.82-1.52,0-2.22,7.431-.9,0Z" fill="#373737"/>
        <path id="Trazado_3691" data-name="Trazado 3691" d="M63.943,326.243l-2.085-.006-.944,3.146,2.387.007-.247.8-3.278-.009,2.468-8.251,3.128.009-.232.783-2.223-.006-.842,2.766,2.1.006Z" fill="#373737"/>
        <path id="Trazado_3692" data-name="Trazado 3692" d="M67.2,322.026a8.229,8.229,0,0,1,1.344-.119,1.942,1.942,0,0,1,1.479.519,1.669,1.669,0,0,1,.343,1.287,3.024,3.024,0,0,1-2.034,2.519l0,.024c.495.2.686.774.586,1.852a13.831,13.831,0,0,0-.08,2.094l-.917,0a15.578,15.578,0,0,1,.126-2.046c.082-1.151-.148-1.593-.914-1.6h-.4l-1.07,3.636-.893,0Zm-.248,3.822.44,0a2.176,2.176,0,0,0,2.013-2.077c.066-.637-.17-1.14-.987-1.142a1.711,1.711,0,0,0-.521.059Z" fill="#373737"/>
        <path id="Trazado_3693" data-name="Trazado 3693" d="M70.39,330.207l2.468-8.251.867,0,.4,4.461c.077.833.147,1.605.168,2.365h.026c.219-.894.42-1.861.709-2.828l1.208-3.991.791,0-2.456,8.251-.816,0-.444-4.3a25.363,25.363,0,0,1-.148-2.561H73.14c-.189.845-.474,1.9-.765,2.877l-1.182,3.979Z" fill="#373737"/>
        <path id="Trazado_3694" data-name="Trazado 3694" d="M78.5,327.73l-1.29,2.5-.9,0,4.365-8.246,1,0-.6,8.256-.879,0,.2-2.5Zm1.969-.693.186-2.144c.047-.576.133-1.273.2-1.9h-.038c-.292.636-.607,1.359-.9,1.909l-1.089,2.129Z" fill="#373737"/>
        <path id="Trazado_3695" data-name="Trazado 3695" d="M85.12,322.812l-1.532,0,.249-.82,3.956.011-.249.821-1.52-.005-2.22,7.432-.9,0Z" fill="#373737"/>
        <path id="Trazado_3696" data-name="Trazado 3696" d="M90.268,322.005,87.8,330.257l-.9,0L89.363,322Z" fill="#373737"/>
        <path id="Trazado_3697" data-name="Trazado 3697" d="M95.914,324.594a9.164,9.164,0,0,1-2.225,5.079,2.428,2.428,0,0,1-1.655.693c-1.632,0-1.628-1.732-1.536-2.613a9.084,9.084,0,0,1,2.3-5.164,2.505,2.505,0,0,1,1.64-.67C96.042,321.924,96.023,323.553,95.914,324.594Zm-2.531-1.514c-1.038.915-1.812,3.4-1.939,4.626-.073.7-.156,1.862.81,1.865a1.267,1.267,0,0,0,.8-.353c1.08-.965,1.8-3.67,1.9-4.6.1-.979.135-1.9-.744-1.9A1.261,1.261,0,0,0,93.384,323.08Z" fill="#373737"/>
        <path id="Trazado_3698" data-name="Trazado 3698" d="M96.127,330.28l2.468-8.251.867,0,.4,4.461c.077.833.147,1.606.167,2.365h.026c.219-.894.42-1.861.709-2.829l1.208-3.991.791,0-2.456,8.251-.816,0-.444-4.3a25.346,25.346,0,0,1-.148-2.561h-.025c-.189.845-.474,1.9-.764,2.877l-1.182,3.979Z" fill="#373737"/>
        <path id="Trazado_3699" data-name="Trazado 3699" d="M104.238,327.8l-1.29,2.5-.9,0,4.365-8.246,1,0-.6,8.257-.879,0,.2-2.5Zm1.969-.693.186-2.143c.047-.576.133-1.274.2-1.9h-.038c-.293.637-.607,1.358-.9,1.909l-1.089,2.129Z" fill="#373737"/>
        <path id="Trazado_3700" data-name="Trazado 3700" d="M110.892,322.064l.9,0-2.236,7.468,2.324.007-.233.783-3.228-.009Z" fill="#373737"/>
      </g>
    </g>
    <path id="Trazado_3701" data-name="Trazado 3701" d="M231.489,276.952c1.983,5.094-11.444,15.185-30,22.539s-35.19,9.187-37.169,4.095,11.444-15.185,29.993-22.539S229.506,271.858,231.489,276.952Z" opacity="0.7" fill="url(#linear-gradient)"/>
    <path id="Trazado_3702" data-name="Trazado 3702" d="M221.529,278.118c1.451,3.725-8.372,11.106-21.937,16.485s-25.739,6.721-27.19,3,8.373-11.107,21.939-16.487S220.081,274.391,221.529,278.118Z" opacity="0.3" fill="url(#linear-gradient-2)"/>
    <path id="Trazado_3703" data-name="Trazado 3703" d="M182.234,322.21c-1.406-3.61,8.12-10.771,21.276-15.985s24.959-6.516,26.366-2.9-8.118,10.77-21.274,15.986S183.64,325.825,182.234,322.21Z" opacity="0.3" fill="url(#linear-gradient-3)"/>
    <rect id="Rect치ngulo_2" data-name="Rect치ngulo 2" width="45.833" height="30.887" transform="translate(164.309 292.738)" fill="none"/>
    <rect id="Rect치ngulo_3" data-name="Rect치ngulo 3" width="47.18" height="45.755" transform="translate(158.875 293.784)" fill="none"/>
    <g id="Grupo_19" data-name="Grupo 19">
      <path id="Trazado_3704" data-name="Trazado 3704" d="M244.516,281.976c-4.679-11.288-29.079-11.232-54.417.057-2.873,1.279-5.634,2.649-8.267,4.087l-5.014,22.062q-1,4.431,4.484,4.432t6.49-4.432l3.27-14.4h7.685l-3.269,14.4q-2.014,8.864-10.792,8.862h-8.781q-8.781,0-6.77-8.862l3.732-16.572c-15.153,10.41-23.667,22.759-20.115,31.175,3.928,9.312,21.343,10.894,41.624,4.729l7.661-33.73H219.6q8.778,0,6.769,8.861l-1.258,5.537q-2.01,8.864-10.791,8.862h-9.876l-1.675,7.533q2.2-.871,4.407-1.852C232.512,311.442,249.258,293.208,244.516,281.976Z" fill="#a90b1b" fill-rule="evenodd"/>
      <path id="Trazado_3705" data-name="Trazado 3705" d="M217.429,308.182l1.257-5.537q1.006-4.429-4.484-4.43h-5.486l-3.268,14.4h5.487Q216.421,312.614,217.429,308.182Z" fill="#a90b1b" fill-rule="evenodd"/>
    </g>
    <g id="Grupo_31" data-name="Grupo 31">
      <g id="Grupo_30" data-name="Grupo 30">
        <g id="Grupo_21" data-name="Grupo 21">
          <g id="Grupo_20" data-name="Grupo 20">
            <path id="Trazado_3706" data-name="Trazado 3706" d="M68.37,295.141l-9.128.02q-6.391.014-8.76,9.367t4.019,9.341l9.132-.02-.95,3.743-10.954.024q-10.955.022-7.637-13.072t14.272-13.12l10.954-.025Z" fill="#aa0012"/>
          </g>
        </g>
        <g id="Grupo_23" data-name="Grupo 23">
          <g id="Grupo_22" data-name="Grupo 22">
            <path id="Trazado_3707" data-name="Trazado 3707" d="M72.488,310.087q-.948,3.746,3.617,3.731l-.948,3.745-3.651.006q-7.306.019-5.406-7.467L70.838,291.4l6.389-.015Z" fill="#aa0012"/>
          </g>
        </g>
        <g id="Grupo_25" data-name="Grupo 25">
          <g id="Grupo_24" data-name="Grupo 24">
            <path id="Trazado_3708" data-name="Trazado 3708" d="M82.364,317.547q-7.3.014-5.409-7.471l1.187-4.675q1.895-7.483,9.2-7.5l8.219-.018q6.387-.015,4.495,7.467l-1.186,4.675q-1.9,7.489-9.2,7.5Zm11.3-12.18q.948-3.74-3.619-3.731t-5.508,3.751l-1.187,4.674q-.944,3.745,3.615,3.734t5.513-3.753Z" fill="#aa0012"/>
          </g>
        </g>
        <g id="Grupo_27" data-name="Grupo 27">
          <g id="Grupo_26" data-name="Grupo 26">
            <path id="Trazado_3709" data-name="Trazado 3709" d="M114.617,305.32q8.218-.016,6.795,5.593l-.236.936q-1.422,5.611-9.64,5.632l-13.692.029.946-3.741,12.782-.027q2.738-.009,3.211-1.88l.237-.935q.477-1.871-2.263-1.864l-4.566.007q-8.213.021-6.794-5.59t9.637-5.631l13.694-.03-.947,3.743L111,301.589q-2.737.006-3.211,1.876t2.263,1.865Z" fill="#aa0012"/>
          </g>
        </g>
        <g id="Grupo_29" data-name="Grupo 29">
          <g id="Grupo_28" data-name="Grupo 28">
            <path id="Trazado_3710" data-name="Trazado 3710" d="M124.709,303.43q1.422-5.613,8.728-5.631l6.389-.014q8.217-.016,6.795,5.595l-.235.934q-1.422,5.615-9.64,5.628l-4.564.012q-2.737,0-3.213,1.876t2.264,1.865l12.783-.026-.952,3.74-13.694.031q-8.215.023-6.673-6.061Zm5.657,2.883a16.938,16.938,0,0,1,1.849-.1l4.566-.01q2.738,0,3.213-1.877l.235-.934q.476-1.87-2.263-1.864l-3.655.009q-2.738.006-3.219,1.915Z" fill="#aa0012"/>
          </g>
        </g>
      </g>
    </g>
    <path id="Trazado_3711" data-name="Trazado 3711" d="M165.272,307.269l-.052,3.267H148.976l.051-3.267" fill="#aa0012" fill-rule="evenodd"/>
  </g>
</svg>